<mxfile host="app.diagrams.net" modified="2024-05-27T12:47:36.299Z" agent="Mozilla/5.0 (Windows NT 10.0; Win64; x64) AppleWebKit/537.36 (KHTML, like Gecko) Chrome/125.0.0.0 Safari/537.36" etag="I0-KneDCdRKkgthHYblE" version="24.0.0" type="device">
  <diagram id="C5RBs43oDa-KdzZeNtuy" name="Page-1">
    <mxGraphModel dx="1050" dy="530" grid="1" gridSize="10" guides="1" tooltips="1" connect="1" arrows="1" fold="1" page="1" pageScale="1" pageWidth="827" pageHeight="1169" math="0" shadow="0">
      <root>
        <mxCell id="WIyWlLk6GJQsqaUBKTNV-0" />
        <mxCell id="WIyWlLk6GJQsqaUBKTNV-1" parent="WIyWlLk6GJQsqaUBKTNV-0" />
        <mxCell id="UDYYu-_8wYLxsJjVWmpE-0" value="&lt;b&gt;GlobalView&lt;br&gt;Web APP&lt;/b&gt;" style="rounded=1;whiteSpace=wrap;html=1;fillColor=#f5f5f5;strokeColor=#666666;fontColor=#333333;" vertex="1" parent="WIyWlLk6GJQsqaUBKTNV-1">
          <mxGeometry x="85" y="260" width="120" height="60" as="geometry" />
        </mxCell>
        <mxCell id="UDYYu-_8wYLxsJjVWmpE-1" value="" style="endArrow=classic;html=1;rounded=0;" edge="1" parent="WIyWlLk6GJQsqaUBKTNV-1">
          <mxGeometry width="50" height="50" relative="1" as="geometry">
            <mxPoint x="15" y="289.5" as="sourcePoint" />
            <mxPoint x="85" y="289.5" as="targetPoint" />
          </mxGeometry>
        </mxCell>
        <mxCell id="UDYYu-_8wYLxsJjVWmpE-3" value="Token (t)" style="text;html=1;align=center;verticalAlign=middle;whiteSpace=wrap;rounded=0;" vertex="1" parent="WIyWlLk6GJQsqaUBKTNV-1">
          <mxGeometry x="20" y="260" width="60" height="30" as="geometry" />
        </mxCell>
        <mxCell id="UDYYu-_8wYLxsJjVWmpE-4" value="&lt;b&gt;India&lt;br&gt;Web API&lt;/b&gt;" style="rounded=0;whiteSpace=wrap;html=1;fillColor=#dae8fc;strokeColor=#6c8ebf;" vertex="1" parent="WIyWlLk6GJQsqaUBKTNV-1">
          <mxGeometry x="310" y="139" width="170" height="60" as="geometry" />
        </mxCell>
        <mxCell id="UDYYu-_8wYLxsJjVWmpE-5" value="&lt;b&gt;Bangladesh&lt;br&gt;Web API&lt;/b&gt;" style="rounded=0;whiteSpace=wrap;html=1;fillColor=#d5e8d4;strokeColor=#82b366;" vertex="1" parent="WIyWlLk6GJQsqaUBKTNV-1">
          <mxGeometry x="310" y="430" width="170" height="60" as="geometry" />
        </mxCell>
        <mxCell id="UDYYu-_8wYLxsJjVWmpE-6" value="&lt;font color=&quot;#071583&quot;&gt;&lt;b&gt;Bangalore&lt;/b&gt;&lt;/font&gt;" style="whiteSpace=wrap;html=1;aspect=fixed;" vertex="1" parent="WIyWlLk6GJQsqaUBKTNV-1">
          <mxGeometry x="630" y="130" width="70" height="70" as="geometry" />
        </mxCell>
        <mxCell id="UDYYu-_8wYLxsJjVWmpE-7" value="&lt;font color=&quot;#071583&quot;&gt;&lt;b&gt;Hyderabad&lt;/b&gt;&lt;/font&gt;" style="whiteSpace=wrap;html=1;aspect=fixed;" vertex="1" parent="WIyWlLk6GJQsqaUBKTNV-1">
          <mxGeometry x="630" y="224" width="70" height="70" as="geometry" />
        </mxCell>
        <mxCell id="UDYYu-_8wYLxsJjVWmpE-8" value="&lt;font color=&quot;#071583&quot;&gt;&lt;b&gt;Kolkata&lt;/b&gt;&lt;/font&gt;" style="whiteSpace=wrap;html=1;aspect=fixed;" vertex="1" parent="WIyWlLk6GJQsqaUBKTNV-1">
          <mxGeometry x="630" y="321" width="70" height="70" as="geometry" />
        </mxCell>
        <mxCell id="UDYYu-_8wYLxsJjVWmpE-9" value="" style="endArrow=classic;html=1;rounded=0;entryX=0;entryY=0.5;entryDx=0;entryDy=0;" edge="1" parent="WIyWlLk6GJQsqaUBKTNV-1" target="UDYYu-_8wYLxsJjVWmpE-6">
          <mxGeometry width="50" height="50" relative="1" as="geometry">
            <mxPoint x="480" y="170" as="sourcePoint" />
            <mxPoint x="530" y="120" as="targetPoint" />
          </mxGeometry>
        </mxCell>
        <mxCell id="UDYYu-_8wYLxsJjVWmpE-11" value="" style="endArrow=classic;html=1;rounded=0;entryX=0;entryY=0.5;entryDx=0;entryDy=0;" edge="1" parent="WIyWlLk6GJQsqaUBKTNV-1" target="UDYYu-_8wYLxsJjVWmpE-7">
          <mxGeometry width="50" height="50" relative="1" as="geometry">
            <mxPoint x="480" y="170" as="sourcePoint" />
            <mxPoint x="530" y="120" as="targetPoint" />
          </mxGeometry>
        </mxCell>
        <mxCell id="UDYYu-_8wYLxsJjVWmpE-12" value="" style="endArrow=classic;html=1;rounded=0;entryX=0;entryY=0.5;entryDx=0;entryDy=0;" edge="1" parent="WIyWlLk6GJQsqaUBKTNV-1" target="UDYYu-_8wYLxsJjVWmpE-4">
          <mxGeometry width="50" height="50" relative="1" as="geometry">
            <mxPoint x="205" y="290" as="sourcePoint" />
            <mxPoint x="255" y="240" as="targetPoint" />
          </mxGeometry>
        </mxCell>
        <mxCell id="UDYYu-_8wYLxsJjVWmpE-14" value="&lt;font color=&quot;#071583&quot;&gt;&lt;b&gt;Dhaka&lt;/b&gt;&lt;/font&gt;" style="whiteSpace=wrap;html=1;aspect=fixed;" vertex="1" parent="WIyWlLk6GJQsqaUBKTNV-1">
          <mxGeometry x="631" y="493" width="70" height="70" as="geometry" />
        </mxCell>
        <mxCell id="UDYYu-_8wYLxsJjVWmpE-15" value="" style="endArrow=classic;html=1;rounded=0;" edge="1" parent="WIyWlLk6GJQsqaUBKTNV-1">
          <mxGeometry width="50" height="50" relative="1" as="geometry">
            <mxPoint x="480" y="460" as="sourcePoint" />
            <mxPoint x="630" y="530" as="targetPoint" />
          </mxGeometry>
        </mxCell>
        <mxCell id="UDYYu-_8wYLxsJjVWmpE-16" value="" style="swimlane;startSize=0;" vertex="1" parent="WIyWlLk6GJQsqaUBKTNV-1">
          <mxGeometry x="565" y="80" width="200" height="500" as="geometry" />
        </mxCell>
        <mxCell id="UDYYu-_8wYLxsJjVWmpE-17" value="&lt;b&gt;Factories&lt;/b&gt;" style="text;html=1;align=center;verticalAlign=middle;whiteSpace=wrap;rounded=0;fillColor=#fff2cc;strokeColor=#d6b656;" vertex="1" parent="UDYYu-_8wYLxsJjVWmpE-16">
          <mxGeometry width="200" height="30" as="geometry" />
        </mxCell>
        <mxCell id="UDYYu-_8wYLxsJjVWmpE-18" value="&lt;h1&gt;&lt;div style=&quot;text-align: center; background-color: rgb(255, 255, 255); line-height: 19px; white-space: pre;&quot;&gt;&lt;font style=&quot;font-size: 14px;&quot; face=&quot;Helvetica&quot;&gt;DownstreamApi&lt;/font&gt;&lt;/div&gt;&lt;/h1&gt;&lt;div style=&quot;background-color: rgb(255, 255, 255); font-size: 14px; line-height: 19px; white-space: pre;&quot;&gt;&lt;div style=&quot;line-height: 19px;&quot;&gt;&lt;ol&gt;&lt;li&gt;BangaloreFactory.Reader&lt;/li&gt;&lt;li&gt;HyderabadFactory.Reader&lt;/li&gt;&lt;li&gt;KolkataFactory.Reader&lt;/li&gt;&lt;/ol&gt;&lt;/div&gt;&lt;/div&gt;&lt;div style=&quot;background-color: rgb(255, 255, 255); font-size: 14px; line-height: 19px; white-space: pre;&quot;&gt;&lt;font face=&quot;Consolas, Courier New, monospace&quot;&gt;&lt;br&gt;&lt;/font&gt;&lt;/div&gt;" style="text;html=1;spacing=5;spacingTop=-20;whiteSpace=wrap;overflow=hidden;rounded=0;fillColor=#cce5ff;strokeColor=#36393d;" vertex="1" parent="WIyWlLk6GJQsqaUBKTNV-1">
          <mxGeometry x="309" y="203" width="211" height="110" as="geometry" />
        </mxCell>
        <mxCell id="UDYYu-_8wYLxsJjVWmpE-19" value="&lt;h1&gt;&lt;div style=&quot;text-align: center; background-color: rgb(255, 255, 255); line-height: 19px; white-space: pre;&quot;&gt;&lt;font style=&quot;font-size: 14px;&quot; face=&quot;Helvetica&quot;&gt;DownstreamApi&lt;/font&gt;&lt;/div&gt;&lt;/h1&gt;&lt;div style=&quot;background-color: rgb(255, 255, 255); font-size: 14px; line-height: 19px; white-space: pre;&quot;&gt;&lt;div style=&quot;line-height: 19px;&quot;&gt;&lt;ol&gt;&lt;li&gt;DhakaFactory.Reader&lt;/li&gt;&lt;/ol&gt;&lt;/div&gt;&lt;/div&gt;" style="text;html=1;spacing=5;spacingTop=-20;whiteSpace=wrap;overflow=hidden;rounded=0;fillColor=#d5e8d4;strokeColor=#82b366;" vertex="1" parent="WIyWlLk6GJQsqaUBKTNV-1">
          <mxGeometry x="310" y="493" width="190" height="67" as="geometry" />
        </mxCell>
        <mxCell id="UDYYu-_8wYLxsJjVWmpE-10" value="" style="endArrow=classic;html=1;rounded=0;entryX=0;entryY=0.5;entryDx=0;entryDy=0;" edge="1" parent="WIyWlLk6GJQsqaUBKTNV-1" target="UDYYu-_8wYLxsJjVWmpE-8">
          <mxGeometry width="50" height="50" relative="1" as="geometry">
            <mxPoint x="480" y="170" as="sourcePoint" />
            <mxPoint x="530" y="120" as="targetPoint" />
          </mxGeometry>
        </mxCell>
        <mxCell id="UDYYu-_8wYLxsJjVWmpE-20" value="&lt;h1&gt;&lt;div style=&quot;text-align: center; background-color: rgb(255, 255, 255); line-height: 19px; white-space: pre;&quot;&gt;&lt;font style=&quot;font-size: 14px;&quot; face=&quot;Helvetica&quot;&gt;DownstreamApi&lt;/font&gt;&lt;/div&gt;&lt;/h1&gt;&lt;div style=&quot;background-color: rgb(255, 255, 255); font-size: 14px; line-height: 19px; white-space: pre;&quot;&gt;&lt;div style=&quot;line-height: 19px;&quot;&gt;&lt;ol&gt;&lt;li&gt;&lt;div style=&quot;font-family: Consolas, &amp;quot;Courier New&amp;quot;, monospace; line-height: 19px;&quot;&gt;India.Reader&lt;/div&gt;&lt;/li&gt;&lt;li&gt;&lt;div style=&quot;font-family: Consolas, &amp;quot;Courier New&amp;quot;, monospace; line-height: 19px;&quot;&gt;Bangladesh.Reader&lt;/div&gt;&lt;/li&gt;&lt;/ol&gt;&lt;/div&gt;&lt;/div&gt;" style="text;html=1;spacing=5;spacingTop=-20;whiteSpace=wrap;overflow=hidden;rounded=0;fillColor=#f9f7ed;strokeColor=#36393d;" vertex="1" parent="WIyWlLk6GJQsqaUBKTNV-1">
          <mxGeometry x="66" y="325" width="180" height="90" as="geometry" />
        </mxCell>
        <mxCell id="UDYYu-_8wYLxsJjVWmpE-13" value="" style="endArrow=classic;html=1;rounded=0;entryX=0;entryY=0.5;entryDx=0;entryDy=0;exitX=1;exitY=0.5;exitDx=0;exitDy=0;" edge="1" parent="WIyWlLk6GJQsqaUBKTNV-1" source="UDYYu-_8wYLxsJjVWmpE-0" target="UDYYu-_8wYLxsJjVWmpE-5">
          <mxGeometry width="50" height="50" relative="1" as="geometry">
            <mxPoint x="215" y="300" as="sourcePoint" />
            <mxPoint x="320" y="179" as="targetPoint" />
          </mxGeometry>
        </mxCell>
        <mxCell id="UDYYu-_8wYLxsJjVWmpE-21" value="" style="swimlane;startSize=0;" vertex="1" parent="WIyWlLk6GJQsqaUBKTNV-1">
          <mxGeometry x="270" y="77" width="261" height="513" as="geometry" />
        </mxCell>
        <mxCell id="UDYYu-_8wYLxsJjVWmpE-22" value="&lt;b&gt;CountryHead&lt;/b&gt;" style="text;html=1;align=center;verticalAlign=middle;whiteSpace=wrap;rounded=0;fillColor=#fff2cc;strokeColor=#d6b656;" vertex="1" parent="UDYYu-_8wYLxsJjVWmpE-21">
          <mxGeometry width="260" height="30" as="geometry" />
        </mxCell>
      </root>
    </mxGraphModel>
  </diagram>
</mxfile>
